<svg width="73" height="72" viewBox="0 0 73 72" fill="none" xmlns="http://www.w3.org/2000/svg">
<rect x="1.16602" y="0.5" width="71" height="71" rx="11.5" fill="#141414"/>
<rect x="1.16602" y="0.5" width="71" height="71" rx="11.5" stroke="#1F1F1F"/>
<g clip-path="url(#clip0_103_2970)">
<g filter="url(#filter0_b_103_2970)">
<path fill-rule="evenodd" clip-rule="evenodd" d="M35.6783 26.6876H38.0511C38.0511 26.3153 38.0538 25.9511 38.0565 25.592C38.0618 24.8881 38.067 24.2034 38.0511 23.5134C38.0271 22.8905 37.5238 22.4353 36.9246 22.3994C36.3254 22.3755 35.7262 22.7947 35.6903 23.3936C35.6568 24.1551 35.6642 24.9166 35.6718 25.6863C35.675 26.0184 35.6783 26.3519 35.6783 26.6876ZM19.5602 38.3827C19.1876 39.6239 18.816 40.8621 18.8647 42.1874C18.8647 42.2673 18.8634 42.3472 18.862 42.427C18.8594 42.5867 18.8567 42.7464 18.8647 42.9061C19.1283 47.0746 23.0951 49.7697 27.0618 48.4521C28.8234 47.8651 30.0817 46.6793 30.8128 44.9784C31.4839 43.4332 32.5624 42.2952 34.1443 41.7323C35.7502 41.1573 37.416 41.1693 39.0458 41.5646C40.8314 42.0078 41.9819 43.2176 42.7249 44.8825C43.9592 47.6735 47.0511 49.2666 49.8913 48.6078C53.3068 47.8172 55.5598 44.2357 54.661 40.8459C53.882 37.8753 53.0431 34.9286 52.1084 32.006C50.6463 27.4303 44.7622 25.5976 41.1789 28.8796C41.0351 29.0114 40.7835 29.0952 40.5917 29.0952C38.0751 29.1072 35.5584 29.1072 33.0418 29.0952C32.8261 29.0952 32.5624 29.0114 32.4066 28.8677C28.7276 25.5377 22.7116 27.4902 21.3454 32.2455C21.2166 32.6857 21.087 33.1259 20.9574 33.5661C20.5687 34.8867 20.1799 36.2073 19.8114 37.5279C19.731 37.8137 19.6456 38.0983 19.5602 38.3827ZM43.7646 36.2166C43.8983 36.0871 44.0444 35.9455 44.2109 35.7791C44.0833 35.6657 43.9612 35.5635 43.8455 35.4666C43.6679 35.3178 43.5052 35.1815 43.36 35.0364C42.7489 34.4256 42.7129 33.7069 43.2282 33.1918C43.7435 32.6767 44.4626 32.7366 45.0738 33.3475C45.2729 33.5466 45.4646 33.7531 45.6962 34.0028C45.7573 34.0686 45.8211 34.1375 45.8887 34.2099C45.9845 34.1035 46.0751 34.0002 46.163 33.9C46.3716 33.6621 46.5647 33.442 46.7755 33.2397C47.3148 32.7246 48.0098 32.7127 48.4892 33.1798C48.9925 33.6709 48.9805 34.3896 48.4533 34.9406C48.2521 35.1504 48.0318 35.3411 47.7691 35.5684C47.6718 35.6526 47.5687 35.7419 47.4586 35.839C47.6086 35.9793 47.7508 36.1039 47.886 36.2224C48.0856 36.3973 48.2698 36.5588 48.4413 36.7374C48.9805 37.3003 48.9805 38.019 48.4892 38.4981C47.9859 38.9893 47.2908 38.9653 46.7395 38.4143C46.5607 38.2278 46.3971 38.0262 46.2158 37.8029C46.1176 37.682 46.0143 37.5548 45.9007 37.4201C45.7597 37.5698 45.6366 37.7049 45.5229 37.8296C45.3273 38.0442 45.1598 38.2281 44.9779 38.4023C44.4027 38.9533 43.7196 38.9893 43.2162 38.4981C42.7009 37.9951 42.7249 37.2764 43.2881 36.6894C43.4373 36.5335 43.5903 36.3853 43.7646 36.2166ZM26.8286 34.6503C26.968 34.6517 27.1125 34.6531 27.2655 34.6531C27.2655 34.5304 27.2647 34.4158 27.2639 34.3072C27.2617 34.0026 27.2598 33.7442 27.2775 33.4793C27.3015 32.7606 27.8048 32.2455 28.4759 32.2575C29.135 32.2575 29.6383 32.7726 29.6623 33.5032C29.6701 33.738 29.6677 33.9728 29.6651 34.2276C29.6637 34.3628 29.6623 34.5036 29.6623 34.6531C29.8009 34.6531 29.9353 34.6518 30.067 34.6504C30.3225 34.6478 30.5676 34.6452 30.8128 34.6531C31.5318 34.6771 32.0471 35.1802 32.0471 35.839C32.0471 36.5098 31.5318 37.0128 30.8128 37.0368C30.5797 37.0446 30.3517 37.0423 30.0961 37.0397C29.9574 37.0383 29.8105 37.0368 29.6503 37.0368C29.6503 37.1723 29.6517 37.3022 29.6531 37.4284C29.6557 37.6703 29.6582 37.8985 29.6503 38.1268C29.6383 38.9054 29.171 39.4205 28.4759 39.4324C27.7688 39.4444 27.2775 38.9174 27.2655 38.1029V37.0368C27.1119 37.0368 26.967 37.0382 26.8277 37.0396C26.5648 37.0422 26.3219 37.0446 26.0791 37.0368C25.384 37.0009 24.8807 36.5098 24.8687 35.8749C24.8447 35.2161 25.3481 34.6891 26.0671 34.6531C26.3182 34.6453 26.5642 34.6477 26.8286 34.6503Z" fill="#0013FF"/>
</g>
</g>
<defs>
<filter id="filter0_b_103_2970" x="6.85938" y="10.3984" width="60" height="50.3906" filterUnits="userSpaceOnUse" color-interpolation-filters="sRGB">
<feFlood flood-opacity="0" result="BackgroundImageFix"/>
<feGaussianBlur in="BackgroundImageFix" stdDeviation="6"/>
<feComposite in2="SourceAlpha" operator="in" result="effect1_backgroundBlur_103_2970"/>
<feBlend mode="normal" in="SourceGraphic" in2="effect1_backgroundBlur_103_2970" result="shape"/>
</filter>
<clipPath id="clip0_103_2970">
<rect width="36" height="26.4" fill="white" transform="translate(18.8652 22.3984)"/>
</clipPath>
</defs>
</svg>
