<svg width="73" height="72" viewBox="0 0 73 72" fill="none" xmlns="http://www.w3.org/2000/svg">
<rect x="0.833984" y="0.5" width="71" height="71" rx="11.5" fill="#141414"/>
<rect x="0.833984" y="0.5" width="71" height="71" rx="11.5" stroke="#1F1F1F"/>
<g clip-path="url(#clip0_103_2980)">
<g filter="url(#filter0_b_103_2980)">
<path fill-rule="evenodd" clip-rule="evenodd" d="M35.6461 28.5942C35.9377 28.593 36.2289 28.5918 36.5189 28.5918C36.819 28.5918 37.1203 28.593 37.4224 28.5942C38.0289 28.5965 38.6385 28.5988 39.2481 28.5918C40.1928 28.5709 40.7281 28.0358 40.7386 27.0811C40.7491 26.2418 40.7491 25.4025 40.7386 24.5632C40.7386 23.5665 40.1823 23 39.1851 23H33.8842C32.8975 23.0105 32.3517 23.5665 32.3412 24.5737V27.0391C32.3412 28.0463 32.8765 28.5813 33.8947 28.5918C34.4759 28.5988 35.0618 28.5965 35.6461 28.5942ZM47.446 31.4035H36.5294H25.6653C23.6709 31.4035 22.5688 32.5051 22.5478 34.5194C22.5373 35.4007 22.3379 35.6 21.4666 35.6C21.4243 35.6 21.3831 35.5988 21.3423 35.5976C21.2618 35.5953 21.1828 35.593 21.0993 35.6C20.3225 35.6525 19.7557 36.198 19.7452 36.9848C19.7347 38.8523 19.7347 40.7302 19.7557 42.5977C19.7557 43.4055 20.333 43.951 21.1517 43.993H21.6766C22.2854 44.014 22.5268 44.2448 22.5583 44.8533V45.3254C22.5898 47.025 23.7549 48.179 25.4554 48.1895C26.82 48.2 28.1845 48.2 29.5491 48.1895C30.7772 48.1895 31.8899 47.8223 32.8766 47.0984C33.2282 46.8361 33.5772 46.5739 33.9262 46.3116C34.2752 46.0493 34.6243 45.787 34.9759 45.5247C36.0781 44.7064 37.0438 44.7064 38.1459 45.5352C38.4599 45.7659 38.7718 46.0007 39.0844 46.236C39.4824 46.5356 39.8815 46.836 40.2873 47.1299C41.0115 47.6649 41.8198 48.0636 42.733 48.1056C44.1016 48.1698 45.4783 48.1779 46.856 48.1859C47.0527 48.187 47.2493 48.1882 47.446 48.1895C49.3774 48.2 50.5216 47.0669 50.5321 45.147C50.5426 44.1609 50.7105 43.993 51.6972 43.993C52.7993 43.993 53.3452 43.4579 53.3452 42.3669V37.2261C53.3452 36.135 52.7993 35.6 51.6972 35.6C50.7105 35.5895 50.5426 35.4321 50.5321 34.446C50.5111 32.5261 49.3774 31.4035 47.446 31.4035Z" fill="#0013FF"/>
</g>
</g>
<defs>
<filter id="filter0_b_103_2980" x="7.73828" y="11" width="57.6074" height="49.1992" filterUnits="userSpaceOnUse" color-interpolation-filters="sRGB">
<feFlood flood-opacity="0" result="BackgroundImageFix"/>
<feGaussianBlur in="BackgroundImageFix" stdDeviation="6"/>
<feComposite in2="SourceAlpha" operator="in" result="effect1_backgroundBlur_103_2980"/>
<feBlend mode="normal" in="SourceGraphic" in2="effect1_backgroundBlur_103_2980" result="shape"/>
</filter>
<clipPath id="clip0_103_2980">
<rect width="33.6" height="25.2" fill="white" transform="translate(19.7344 23)"/>
</clipPath>
</defs>
</svg>
