<svg width="73" height="72" viewBox="0 0 73 72" fill="none" xmlns="http://www.w3.org/2000/svg">
<rect x="0.833984" y="0.5" width="71" height="71" rx="11.5" fill="#141414"/>
<rect x="0.833984" y="0.5" width="71" height="71" rx="11.5" stroke="#1F1F1F"/>
<g clip-path="url(#clip0_103_2948)">
<g filter="url(#filter0_b_103_2948)">
<path fill-rule="evenodd" clip-rule="evenodd" d="M19.1343 39.3464V39.8265C30.7086 39.8265 42.2047 39.8265 53.7455 39.8153V39.3353V24.3191C53.7455 23.2697 53.2767 22.8008 52.2052 22.8008H20.6746C19.5919 22.8008 19.1343 23.2697 19.1343 24.3303V39.3464ZM35.3912 34.2983C34.9246 34.5682 34.4548 34.8399 33.9788 35.1151V28.5505C35.1868 29.2541 36.3766 29.9397 37.5801 30.633C38.267 31.0288 38.9583 31.4271 39.6599 31.8328C38.2134 32.6656 36.8175 33.4731 35.3912 34.2983ZM48.3446 45.8196C48.2343 45.5489 48.1214 45.272 48.0085 44.9845H48.0092C49.5157 44.9845 50.933 44.9845 52.3279 44.9733C53.0868 44.9621 53.6672 44.5379 53.7007 43.8569C53.7393 43.2086 53.7299 42.5551 53.7204 41.8962C53.7161 41.6019 53.7119 41.3064 53.7119 41.0099H19.123V43.3768C19.123 44.5044 19.5918 44.9733 20.7079 44.9733H24.8488C24.5029 45.8439 24.1793 46.6475 23.8557 47.4512L23.8554 47.4518C23.7215 47.8091 23.6657 48.1663 24.1121 48.3338C24.5474 48.5013 24.7595 48.211 24.9046 47.8537C25.0027 47.6117 25.1027 47.3707 25.2026 47.1298C25.4439 46.5482 25.6849 45.9673 25.8979 45.3752C26.0207 45.0515 26.1881 44.9733 26.5118 44.9733C33.1305 44.9845 39.7491 44.9845 46.3678 44.9733C46.7138 44.9733 46.8589 45.0849 46.9705 45.3976C47.2237 46.0697 47.4939 46.7249 47.7662 47.3853C47.806 47.4817 47.8459 47.5783 47.8857 47.6751C47.9136 47.7365 47.9387 47.7951 47.9638 47.8537C47.9889 47.9123 48.014 47.9709 48.0419 48.0324C48.187 48.3561 48.4884 48.5124 48.7563 48.3226C48.9349 48.1998 49.0911 47.8091 49.0241 47.6081C48.8306 47.012 48.5942 46.4319 48.3446 45.8196ZM40.6532 43.2093H36.4119C35.9435 43.2093 35.4739 43.2081 35.0039 43.2068C34.0626 43.2044 33.1197 43.2019 32.1818 43.2093C31.8023 43.2093 31.4339 43.1647 31.4228 42.6846C31.4116 42.1934 31.7799 42.0929 32.1929 42.0929H40.6643C41.0661 42.0929 41.4456 42.1822 41.4456 42.6734C41.4456 43.187 41.0438 43.2093 40.6532 43.2093Z" fill="#0013FF"/>
</g>
</g>
<defs>
<filter id="filter0_b_103_2948" x="7.12305" y="10.8008" width="58.623" height="49.6055" filterUnits="userSpaceOnUse" color-interpolation-filters="sRGB">
<feFlood flood-opacity="0" result="BackgroundImageFix"/>
<feGaussianBlur in="BackgroundImageFix" stdDeviation="6"/>
<feComposite in2="SourceAlpha" operator="in" result="effect1_backgroundBlur_103_2948"/>
<feBlend mode="normal" in="SourceGraphic" in2="effect1_backgroundBlur_103_2948" result="shape"/>
</filter>
<clipPath id="clip0_103_2948">
<rect width="34.6" height="25.6" fill="white" transform="translate(19.1348 22.8008)"/>
</clipPath>
</defs>
</svg>
