<svg width="72" height="72" viewBox="0 0 72 72" fill="none" xmlns="http://www.w3.org/2000/svg">
<rect x="0.5" y="0.5" width="71" height="71" rx="11.5" fill="#141414"/>
<rect x="0.5" y="0.5" width="71" height="71" rx="11.5" stroke="#1F1F1F"/>
<g clip-path="url(#clip0_103_2960)">
<g filter="url(#filter0_b_103_2960)">
<path fill-rule="evenodd" clip-rule="evenodd" d="M49.1372 22.1992H36.1312H23.1374C21.8184 22.1992 21.4521 22.5647 21.4521 23.8438V37.6092C21.4521 38.8761 21.8307 39.2538 23.0763 39.2538H49.1372C50.3828 39.2538 50.7614 38.8761 50.7614 37.6092V23.8438C50.7614 22.5769 50.3828 22.1992 49.1372 22.1992ZM19.376 48.9992H36.0457H52.8497C53.1428 48.9992 53.4603 48.987 53.7412 48.8896C54.3884 48.6703 54.5838 48.1343 54.2541 47.5374C53.0942 45.4182 51.922 43.3112 50.7499 41.2041L50.7492 41.2029C50.4683 40.7156 50.0653 40.4719 49.5035 40.4719H22.6977C22.136 40.4719 21.733 40.7156 21.4643 41.2029L21.4643 41.2029C20.2919 43.3103 19.1195 45.4178 17.9594 47.5374C17.6297 48.1343 17.8373 48.6703 18.4845 48.8896C18.7532 48.987 19.0707 48.9992 19.376 48.9992ZM36.8639 46.5656C36.6074 46.5642 36.351 46.5629 36.0945 46.5629C35.8385 46.5629 35.5825 46.5642 35.3261 46.5656C34.8118 46.5683 34.2957 46.571 33.7742 46.5629C32.9926 46.5507 32.4553 46.0634 32.4431 45.369C32.4309 44.6503 32.9804 44.1387 33.7986 44.1387C35.3374 44.1265 36.8883 44.1265 38.4271 44.1387C39.2086 44.1509 39.746 44.6381 39.7582 45.3325C39.7704 46.039 39.2208 46.5507 38.4026 46.5629C37.8897 46.571 37.3768 46.5683 36.8639 46.5656Z" fill="#0013FF"/>
</g>
</g>
<defs>
<filter id="filter0_b_103_2960" x="5.80469" y="10.1992" width="60.6074" height="50.8008" filterUnits="userSpaceOnUse" color-interpolation-filters="sRGB">
<feFlood flood-opacity="0" result="BackgroundImageFix"/>
<feGaussianBlur in="BackgroundImageFix" stdDeviation="6"/>
<feComposite in2="SourceAlpha" operator="in" result="effect1_backgroundBlur_103_2960"/>
<feBlend mode="normal" in="SourceGraphic" in2="effect1_backgroundBlur_103_2960" result="shape"/>
</filter>
<clipPath id="clip0_103_2960">
<rect width="36.6" height="26.8" fill="white" transform="translate(17.8008 22.1992)"/>
</clipPath>
</defs>
</svg>
