<svg width="139" height="139" viewBox="0 0 139 139" fill="none" xmlns="http://www.w3.org/2000/svg">
<rect x="12.1836" y="12.0625" width="114.889" height="114.889" rx="57.4446" fill="#0013FF"/>
<g clip-path="url(#clip0_103_2617)">
<path d="M54.0928 96.6723H59.4033C60.3564 96.6723 61.0032 96.2638 61.3436 95.4468C61.684 94.6298 61.684 93.8129 61.3436 92.9959C61.0032 92.1789 60.3564 91.7704 59.4033 91.7704H54.0928C53.0035 91.7704 52.2886 92.1789 51.9482 92.9959C51.6078 93.8129 51.6078 94.6298 51.9482 95.4468C52.2886 96.2638 53.0035 96.6723 54.0928 96.6723ZM54.0928 93.6086H59.4033C59.6756 93.6086 59.8118 93.8129 59.8118 94.2214C59.8118 94.6298 59.6756 94.8341 59.4033 94.8341H54.0928C53.6843 94.8341 53.4801 94.6298 53.4801 94.2214C53.4801 93.8129 53.6843 93.6086 54.0928 93.6086ZM60.6287 69.7117L54.7056 75.6348L52.6631 73.5924C52.3908 73.32 52.1184 73.2179 51.8461 73.286C51.5738 73.3541 51.3695 73.5583 51.2334 73.8987C51.0972 74.2391 51.1653 74.5455 51.4376 74.8178L54.0928 77.4731C54.5013 77.8816 54.9098 77.8816 55.3183 77.4731L61.8542 70.9371C62.1266 70.6648 62.1946 70.3925 62.0585 70.1202C61.9223 69.8478 61.7181 69.6436 61.4457 69.5074C61.1734 69.3712 60.9011 69.4393 60.6287 69.7117ZM99.64 78.4943C99.2315 77.9496 98.9592 77.2688 98.823 76.4518C97.8699 72.7754 96.5082 69.2351 94.7381 65.831L91.8786 60.3163C91.334 59.227 90.517 58.5461 89.4276 58.2738C88.3383 58.0015 87.3171 58.1376 86.3639 58.6823C85.4108 59.227 84.798 60.0439 84.5257 61.1333C83.4364 60.7248 82.3471 60.7929 81.2577 61.3375C80.1684 61.8822 79.4876 62.6992 79.2153 63.7885C78.2621 63.5162 77.343 63.5502 76.4579 63.8906C75.5729 64.231 74.858 64.8097 74.3133 65.6267V42.3425C74.3133 41.3893 73.9729 40.5723 73.2921 39.8915C72.6113 39.2107 71.7943 38.8703 70.8411 38.8703H50.0079C49.5994 38.8703 49.3271 39.0065 49.1909 39.2788C49.0547 39.5511 49.0547 39.8575 49.1909 40.1979C49.3271 40.5383 49.5994 40.7085 50.0079 40.7085H70.8411C71.3858 40.7085 71.7943 40.8787 72.0666 41.2191C72.3389 41.5595 72.4751 41.934 72.4751 42.3425V44.9977H40.8167V42.3425C40.8167 41.934 40.9869 41.5595 41.3274 41.2191C41.6678 40.8787 42.0422 40.7085 42.4507 40.7085H44.9017C45.3102 40.7085 45.5825 40.5383 45.7187 40.1979C45.8548 39.8575 45.8548 39.5511 45.7187 39.2788C45.5825 39.0065 45.3102 38.8703 44.9017 38.8703H42.4507C41.4976 38.8703 40.6806 39.2107 39.9998 39.8915C39.3189 40.5723 38.9785 41.3893 38.9785 42.3425V96.6723C38.9785 97.6255 39.3189 98.4425 39.9998 99.1233C40.6806 99.8041 41.4976 100.145 42.4507 100.145H70.8411C71.7943 100.145 72.6113 99.8041 73.2921 99.1233C73.9729 98.4425 74.3133 97.6255 74.3133 96.6723V85.643L77.5813 87.0727C78.3983 87.4812 79.011 88.0939 79.4195 88.9109C80.1003 90.4087 81.2237 91.43 82.7896 91.9746C84.3555 92.5193 85.8874 92.3831 87.3852 91.5661L92.6956 88.7067C92.9679 88.5705 93.1041 88.3322 93.1041 87.9918C93.1041 87.6514 92.9679 87.3791 92.6956 87.1748C92.4233 86.9706 92.1509 87.0046 91.8786 87.2769L86.5682 89.9322C85.4789 90.4768 84.3895 90.5789 83.3002 90.2385C82.2109 89.8981 81.3939 89.1833 80.8492 88.0939C80.3046 87.0046 79.4876 86.1876 78.3983 85.643L64.7137 78.9028C63.8967 78.4943 63.4882 77.8816 63.4882 77.0646C63.4882 76.2476 63.7946 75.5668 64.4073 75.0221C65.0201 74.4774 65.7349 74.4093 66.5519 74.8178L71.6581 77.2688C71.9304 77.5411 72.2368 77.5071 72.5772 77.1667C72.9176 76.8263 73.0198 76.5199 72.8836 76.2476L64.3052 59.7035C63.7605 58.8865 63.7265 58.1036 64.2031 57.3547C64.6797 56.6058 65.3264 56.1973 66.1434 56.1292C66.9604 56.0611 67.5732 56.5037 67.9817 57.4568L75.7431 71.9584C75.8792 72.3669 76.1175 72.5711 76.4579 72.5711C76.7983 72.5711 77.0707 72.435 77.2749 72.1626C77.4792 71.8903 77.4451 71.5499 77.1728 71.1414L75.7431 68.2819C75.4707 67.6011 75.5388 66.9884 75.9473 66.4437C76.3558 65.899 76.9005 65.5586 77.5813 65.4225C78.2621 65.2863 78.8068 65.4905 79.2153 66.0352L81.0535 69.3032C81.1897 69.5755 81.4279 69.7117 81.7684 69.7117C82.1088 69.7117 82.3811 69.5755 82.5854 69.3032C82.7896 69.0308 82.8236 68.7585 82.6875 68.4862L80.8492 65.014C80.8492 64.0608 81.2918 63.3459 82.1769 62.8694C83.0619 62.3928 83.8449 62.4949 84.5257 63.1757L86.3639 66.4437C86.5001 66.716 86.7384 66.8522 87.0788 66.8522C87.4192 66.8522 87.6915 66.716 87.8958 66.4437C88.1 66.1714 88.066 65.899 87.7937 65.6267L86.1597 62.3587C86.0235 61.5418 86.2278 60.929 86.7724 60.5205C87.3171 60.112 87.9639 59.9418 88.7128 60.0099C89.4617 60.078 89.9723 60.4524 90.2446 61.1333L93.3083 66.6479C94.9423 69.9159 96.1678 73.32 96.9848 76.8603C97.2571 77.6773 97.6316 78.5624 98.1082 79.5155C98.5847 80.4687 98.6528 81.4559 98.3124 82.4771C97.972 83.4984 97.3252 84.2813 96.3721 84.826C95.9636 84.9621 95.7593 85.2004 95.7593 85.5408C95.7593 85.8812 95.8955 86.1536 96.1678 86.3578C96.4401 86.5621 96.7806 86.5961 97.189 86.46C98.5507 85.7791 99.4698 84.6558 99.9464 83.0899C100.423 81.524 100.321 79.9921 99.64 78.4943ZM72.4751 96.6723C72.4751 97.0808 72.3389 97.4553 72.0666 97.7957C71.7943 98.1361 71.3858 98.3063 70.8411 98.3063H42.4507C42.0422 98.3063 41.6678 98.1361 41.3274 97.7957C40.9869 97.4553 40.8167 97.0808 40.8167 96.6723V90.1364H72.4751V96.6723ZM62.0585 75.0221C61.7861 75.7029 61.684 76.3837 61.7521 77.0646C61.8202 77.7454 61.9904 78.4262 62.2627 79.107C60.7649 80.741 58.9267 81.558 56.748 81.558C54.5694 81.558 52.6971 80.7751 51.1312 79.2092C49.5653 77.6433 48.7824 75.771 48.7824 73.5924C48.7824 71.4137 49.5653 69.5415 51.1312 67.9756C52.6971 66.4097 54.5354 65.6267 56.6459 65.6267C58.7565 65.6267 60.5607 66.3416 62.0585 67.7713C63.5563 69.201 64.3733 70.9371 64.5094 72.9796C63.4201 73.2519 62.6031 73.9328 62.0585 75.0221ZM68.5944 55.4143C68.1859 55.0058 67.7093 54.7335 67.1647 54.5973C66.3477 54.325 65.4966 54.3931 64.6116 54.8016C63.7265 55.2101 63.0457 55.8228 62.5691 56.6398C62.0925 57.4568 61.9223 58.3419 62.0585 59.295H45.1059C44.8336 59.295 44.6974 59.227 44.6974 59.0908V52.5549C44.6974 52.4187 44.8336 52.3506 45.1059 52.3506H68.1859C68.4582 52.3506 68.5944 52.4187 68.5944 52.5549V55.4143ZM72.4751 62.1545L70.4326 58.0695V52.5549C70.4326 52.0102 70.2284 51.5336 69.8199 51.1251C69.4114 50.7166 68.8667 50.5124 68.1859 50.5124H45.1059C44.5613 50.5124 44.0847 50.7166 43.6762 51.1251C43.2677 51.5336 43.0635 52.0102 43.0635 52.5549V59.0908C43.0635 59.6354 43.2677 60.112 43.6762 60.5205C44.0847 60.929 44.5613 61.1333 45.1059 61.1333H62.8755L69.8199 74.4093L67.3689 73.1839C67.0966 73.0477 66.7562 72.9115 66.3477 72.7754C66.0753 70.3244 65.0201 68.2479 63.1818 66.5458C61.3436 64.8438 59.1309 63.9927 56.5438 63.9927C53.9567 63.9927 51.7099 64.9118 49.8036 66.7501C47.8973 68.5883 46.9442 70.8691 46.9442 73.5924C46.9442 76.3157 47.8973 78.5964 49.8036 80.4347C51.7099 82.2729 54.0247 83.192 56.748 83.192C59.4713 83.192 61.7861 82.2388 63.6925 80.3325C64.9179 81.0134 66.8923 81.9665 69.6156 83.192L72.4751 84.6217V88.2982H40.8167V46.8359H72.4751V62.1545Z" fill="white"/>
</g>
<rect x="1.33359" y="1.21249" width="136.59" height="136.59" rx="68.2952" stroke="#0013FF" stroke-width="1.27655" stroke-dasharray="3.83 2.55"/>
<defs>
<clipPath id="clip0_103_2617">
<rect width="61.2998" height="61.2742" fill="white" transform="matrix(1 0 0 -1 38.9648 100.145)"/>
</clipPath>
</defs>
</svg>
