<svg width="78" height="78" viewBox="0 0 78 78" fill="none" xmlns="http://www.w3.org/2000/svg">
<rect width="78" height="78" rx="39" fill="white"/>
<path d="M51.5295 42.9405C51.9518 42.4339 52.2895 41.8427 52.5429 41.1672C52.7962 40.4916 52.9229 39.8161 52.9229 39.1405C52.9229 38.0427 52.5429 37.1139 51.7829 36.3539C51.0229 35.5939 50.094 35.2139 48.9962 35.2139C47.8984 35.2139 46.9695 35.5939 46.2095 36.3539C45.4495 37.1139 45.0695 38.0639 45.0695 39.2039C45.0695 40.3439 45.3651 41.3783 45.9562 42.3072L46.3362 42.9405C45.4073 42.9405 44.5629 43.2361 43.8029 43.8272C43.4651 43.7427 43.1273 43.7005 42.7895 43.7005H42.1562C42.5784 43.3627 42.9162 42.9405 43.1695 42.4339C44.014 41.0827 44.4362 39.5205 44.4362 37.7472C44.4362 36.8183 44.204 35.9316 43.7395 35.0872C43.2751 34.2427 42.6206 33.5672 41.7762 33.0605C40.9318 32.5539 40.0029 32.3005 38.9895 32.3005C37.9762 32.3005 37.0473 32.5539 36.2029 33.0605C35.3584 33.5672 34.704 34.2427 34.2395 35.0872C33.7751 35.9316 33.5429 36.8183 33.5429 37.7472C33.5429 39.5205 33.9651 41.0827 34.8095 42.4339C35.0629 42.8561 35.4006 43.2783 35.8229 43.7005H35.1895C34.8518 43.7005 34.514 43.7427 34.1762 43.8272C33.4162 43.2361 32.5718 42.9405 31.6429 42.9405L32.0229 42.3072C32.614 41.3783 32.9095 40.3439 32.9095 39.2039C32.9095 38.0639 32.5295 37.1139 31.7695 36.3539C31.0095 35.5939 30.0806 35.2139 28.9829 35.2139C27.8851 35.2139 26.9562 35.5939 26.1962 36.3539C25.4362 37.1139 25.0562 38.0427 25.0562 39.1405C25.0562 39.8161 25.1829 40.4916 25.4362 41.1672C25.6895 41.8427 26.0273 42.4339 26.4495 42.9405C25.2673 42.9405 24.2751 43.3205 23.4729 44.0805C22.6706 44.8405 22.2695 45.7694 22.2695 46.8672V51.4272C22.2695 51.5961 22.3118 51.7439 22.3962 51.8705C22.4806 51.9972 22.6073 52.0605 22.7762 52.0605H29.3629V55.8605C29.3629 56.0294 29.4262 56.1561 29.5529 56.2405C29.6795 56.325 29.8273 56.3672 29.9962 56.3672H47.9829C48.1518 56.3672 48.2995 56.325 48.4262 56.2405C48.5529 56.1561 48.6162 56.0294 48.6162 55.8605V52.0605H55.2029C55.3718 52.0605 55.4984 51.9972 55.5829 51.8705C55.6673 51.7439 55.7095 51.5961 55.7095 51.4272V46.8672C55.7095 45.7694 55.3084 44.8405 54.5062 44.0805C53.704 43.3205 52.7118 42.9405 51.5295 42.9405ZM46.2095 39.1405C46.2095 38.3805 46.484 37.7261 47.0329 37.1772C47.5818 36.6283 48.2362 36.3539 48.9962 36.3539C49.7562 36.3539 50.4106 36.6283 50.9595 37.1772C51.5084 37.7261 51.7829 38.4227 51.7829 39.2672C51.7829 40.1116 51.5718 40.8716 51.1495 41.5472C50.6429 42.4761 49.9251 42.9405 48.9962 42.9405C48.0673 42.9405 47.3495 42.4761 46.8429 41.5472C46.4206 40.8716 46.2095 40.0694 46.2095 39.1405ZM38.9895 33.5672C40.1718 33.5672 41.1851 33.9683 42.0295 34.7705C42.874 35.5727 43.2962 36.565 43.2962 37.7472V37.8739C42.3673 37.7894 41.5651 37.6205 40.8895 37.3672C40.0451 37.0294 39.1584 36.5227 38.2295 35.8472C38.0606 35.6783 37.8495 35.6783 37.5962 35.8472L34.6829 37.4939C34.7673 36.3961 35.2318 35.4672 36.0762 34.7072C36.9206 33.9472 37.8918 33.5672 38.9895 33.5672ZM35.8229 41.8005C35.3162 40.9561 34.9784 39.985 34.8095 38.8872L37.8495 36.9872C38.7784 37.6627 39.7073 38.1694 40.6362 38.5072C41.3118 38.7605 42.1562 38.9716 43.1695 39.1405C43.0006 40.1539 42.6629 41.0405 42.1562 41.8005C41.3962 43.0672 40.3406 43.7005 38.9895 43.7005C37.6384 43.7005 36.5829 43.0672 35.8229 41.8005ZM26.1962 39.1405C26.1962 38.3805 26.4706 37.7261 27.0195 37.1772C27.5684 36.6283 28.2229 36.3539 28.9829 36.3539C29.7429 36.3539 30.3973 36.6283 30.9462 37.1772C31.4951 37.7261 31.7695 38.4227 31.7695 39.2672C31.7695 40.1116 31.5584 40.8716 31.1362 41.5472C30.6295 42.4761 29.9118 42.9405 28.9829 42.9405C28.054 42.9405 27.3362 42.4761 26.8295 41.5472C26.4073 40.8716 26.1962 40.0694 26.1962 39.1405ZM23.4095 50.9205V46.8672C23.4095 46.1072 23.7051 45.4739 24.2962 44.9672C24.8873 44.4605 25.6051 44.2072 26.4495 44.2072H31.6429C31.9806 44.2072 32.2762 44.2494 32.5295 44.3339C31.6006 44.7561 30.8406 45.4105 30.2495 46.2972C29.6584 47.1839 29.3629 48.1339 29.3629 49.1472V50.9205H23.4095ZM47.4762 55.2272H44.4362V51.5539C44.4362 51.385 44.3729 51.2372 44.2462 51.1105C44.1195 50.9839 43.9718 50.9205 43.8029 50.9205C43.634 50.9205 43.5073 50.9839 43.4229 51.1105C43.3384 51.2372 43.2962 51.385 43.2962 51.5539V55.2272H34.6829V51.5539C34.6829 51.385 34.6406 51.2372 34.5562 51.1105C34.4718 50.9839 34.3451 50.9205 34.1762 50.9205C34.0073 50.9205 33.8595 50.9839 33.7329 51.1105C33.6062 51.2372 33.5429 51.385 33.5429 51.5539V55.2272H30.5029V49.1472C30.5029 47.965 30.9673 46.9516 31.8962 46.1072C32.8251 45.2627 33.9229 44.8405 35.1895 44.8405H42.7895C44.0562 44.8405 45.154 45.2627 46.0829 46.1072C47.0118 46.9516 47.4762 47.965 47.4762 49.1472V55.2272ZM54.5695 50.9205H48.6162V49.1472C48.6162 48.1339 48.3206 47.1839 47.7295 46.2972C47.1384 45.4105 46.3784 44.7561 45.4495 44.3339C45.7029 44.2494 45.9984 44.2072 46.3362 44.2072H51.5295C52.374 44.2072 53.0918 44.4605 53.6829 44.9672C54.274 45.4739 54.5695 46.1072 54.5695 46.8672V50.9205ZM35.6962 26.7272L35.1895 29.8939C35.1895 30.1472 35.274 30.3372 35.4429 30.4639C35.6118 30.5905 35.8229 30.6116 36.0762 30.5272L38.9895 29.0072L41.9029 30.5272C42.1562 30.6116 42.3673 30.5905 42.5362 30.4639C42.7051 30.3372 42.7895 30.1472 42.7895 29.8939L42.2829 26.7272L44.5629 24.3205C44.7318 24.1516 44.774 23.9616 44.6895 23.7505C44.6051 23.5394 44.4362 23.3916 44.1829 23.3072L41.0162 22.8005L39.4962 19.8872C39.4118 19.7183 39.2429 19.6339 38.9895 19.6339C38.7362 19.6339 38.5673 19.7183 38.4829 19.8872L36.9629 22.8005L33.7962 23.3072C33.5429 23.3916 33.374 23.5394 33.2895 23.7505C33.2051 23.9616 33.2473 24.1516 33.4162 24.3205L35.6962 26.7272ZM37.4695 23.9405C37.6384 23.8561 37.7651 23.7294 37.8495 23.5605L38.9895 21.4072L40.1295 23.5605C40.214 23.7294 40.3406 23.8561 40.5095 23.9405L42.9162 24.3205L41.2695 26.0939C41.1006 26.1783 41.0162 26.3472 41.0162 26.6005L41.3962 28.8805L39.2429 27.8672C39.074 27.7827 38.9051 27.7827 38.7362 27.8672L36.5829 28.8805L36.9629 26.6005C36.9629 26.3472 36.8784 26.1783 36.7095 26.0939L35.0629 24.3205L37.4695 23.9405ZM24.6762 27.6139L24.2962 29.8939C24.2962 30.1472 24.4018 30.3372 24.6129 30.4639C24.824 30.5905 25.014 30.6116 25.1829 30.5272L27.2095 29.5139L29.2362 30.5272C29.4051 30.6116 29.5951 30.5905 29.8062 30.4639C30.0173 30.3372 30.1229 30.1472 30.1229 29.8939L29.7429 27.6139L31.2629 26.0939C31.4318 25.925 31.4951 25.7139 31.4529 25.4605C31.4106 25.2072 31.2629 25.0805 31.0095 25.0805L28.7295 24.7005L27.7162 22.6739C27.6318 22.505 27.4629 22.4205 27.2095 22.4205C26.9562 22.4205 26.7873 22.505 26.7029 22.6739L25.6895 24.7005L23.4095 25.0805C23.1562 25.0805 23.0084 25.2072 22.9662 25.4605C22.924 25.7139 22.9873 25.925 23.1562 26.0939L24.6762 27.6139ZM26.0695 25.8405C26.3229 25.7561 26.4918 25.6294 26.5762 25.4605L27.2095 24.1939L27.8429 25.4605C27.9273 25.6294 28.054 25.7561 28.2229 25.8405L29.6162 26.0939L28.7295 27.1072C28.5606 27.1916 28.4762 27.3183 28.4762 27.4872L28.7295 28.8805L27.4629 28.3739C27.294 28.2894 27.1251 28.2894 26.9562 28.3739L25.6895 28.8805L25.9429 27.4872C25.9429 27.3183 25.8584 27.1916 25.6895 27.1072L24.8029 26.0939L26.0695 25.8405ZM48.2362 27.6139L47.8562 29.8939C47.8562 30.1472 47.9618 30.3372 48.1729 30.4639C48.384 30.5905 48.574 30.6116 48.7429 30.5272L50.7695 29.5139L52.7962 30.5272C52.9651 30.6116 53.1551 30.5905 53.3662 30.4639C53.5773 30.3372 53.6829 30.1472 53.6829 29.8939L53.3029 27.6139L54.8229 26.0939C54.9918 25.925 55.0551 25.7139 55.0129 25.4605C54.9706 25.2072 54.8229 25.0805 54.5695 25.0805L52.2895 24.7005L51.2762 22.6739C51.1918 22.505 51.0229 22.4205 50.7695 22.4205C50.5162 22.4205 50.3473 22.505 50.2629 22.6739L49.2495 24.7005L46.9695 25.0805C46.7162 25.0805 46.5684 25.2072 46.5262 25.4605C46.484 25.7139 46.5473 25.925 46.7162 26.0939L48.2362 27.6139ZM49.7562 25.8405C49.9251 25.7561 50.0518 25.6294 50.1362 25.4605L50.7695 24.1939L51.4029 25.4605C51.4873 25.6294 51.6562 25.7561 51.9095 25.8405L53.1762 26.0939L52.2895 27.1072C52.1206 27.1916 52.0362 27.3183 52.0362 27.4872L52.2895 28.8805L51.0229 28.3739C50.854 28.2894 50.6851 28.2894 50.5162 28.3739L49.2495 28.8805L49.5029 27.4872C49.5029 27.3183 49.4184 27.1916 49.2495 27.1072L48.3629 26.0939L49.7562 25.8405Z" fill="#0E2A46"/>
</svg>
