<svg width="139" height="139" viewBox="0 0 139 139" fill="none" xmlns="http://www.w3.org/2000/svg">
<rect x="12.1826" y="12.0622" width="114.889" height="114.889" rx="57.4446" fill="#0013FF"/>
<g clip-path="url(#clip0_63_6)">
<path d="M64.9175 88.7059C66.0068 88.7059 66.9259 88.2974 67.6748 87.4804C68.4237 86.6634 68.7982 85.6762 68.7982 84.5188C68.7982 83.3614 68.4237 82.4082 67.6748 81.6593C66.9259 80.9104 65.9727 80.536 64.8153 80.536C63.6579 80.536 62.7048 80.9104 61.9559 81.6593C61.207 82.4082 60.8325 83.3614 60.8325 84.5188C60.8325 85.6762 61.207 86.6634 61.9559 87.4804C62.7048 88.2974 63.692 88.7059 64.9175 88.7059ZM64.9175 82.17C65.4621 82.17 65.9727 82.4082 66.4493 82.8848C66.9259 83.3614 67.1642 83.9061 67.1642 84.5188C67.1642 85.1315 66.9259 85.6762 66.4493 86.1528C65.9727 86.6294 65.4281 86.8676 64.8153 86.8676C64.2026 86.8676 63.6579 86.6294 63.1814 86.1528C62.7048 85.6762 62.4665 85.1315 62.4665 84.5188C62.4665 83.9061 62.7048 83.3614 63.1814 82.8848C63.6579 82.4082 64.2366 82.17 64.9175 82.17ZM57.973 91.9738V97.4885C57.973 97.7608 58.0752 97.9651 58.2794 98.1013C58.4837 98.2374 58.6539 98.3055 58.79 98.3055H70.8406C70.9768 98.3055 71.147 98.2374 71.3513 98.1013C71.5555 97.9651 71.6576 97.7608 71.6576 97.4885V91.9738C71.6576 90.8845 71.2832 89.9654 70.5343 89.2165C69.7854 88.4676 68.9343 88.1612 67.9812 88.2974C67.5727 88.1612 67.3003 88.2293 67.1642 88.5016C67.028 88.774 66.8238 88.9782 66.5514 89.1144C65.8706 89.659 65.1557 89.8633 64.4068 89.7271C63.6579 89.5909 63.0111 89.1824 62.4665 88.5016C62.3303 88.2293 62.058 88.1612 61.6495 88.2974C60.6963 88.1612 59.8453 88.4676 59.0964 89.2165C58.3475 89.9654 57.973 90.8845 57.973 91.9738ZM59.8113 91.9738C59.8113 91.4292 59.9474 90.9866 60.2198 90.6462C60.4921 90.3058 60.9006 90.0675 61.4452 89.9314C62.2622 90.8845 63.3856 91.3611 64.8153 91.3611C66.2451 91.3611 67.3684 90.8845 68.1854 89.9314C68.7301 90.0675 69.1386 90.3058 69.4109 90.6462C69.6832 90.9866 69.8194 91.4292 69.8194 91.9738V96.6715H59.8113V91.9738ZM79.2148 88.7059C80.3041 88.7059 81.2573 88.2974 82.0742 87.4804C82.8912 86.6634 83.2997 85.6762 83.2997 84.5188C83.2997 83.3614 82.8912 82.4082 82.0742 81.6593C81.2573 80.9104 80.2701 80.536 79.1127 80.536C77.9553 80.536 77.0021 80.9104 76.2532 81.6593C75.5043 82.4082 75.1298 83.3614 75.1298 84.5188C75.1298 85.6762 75.5383 86.6634 76.3553 87.4804C77.1723 88.2974 78.1255 88.7059 79.2148 88.7059ZM79.2148 82.17C79.7594 82.17 80.2701 82.4082 80.7466 82.8848C81.2232 83.3614 81.4615 83.9061 81.4615 84.5188C81.4615 85.1315 81.2232 85.6762 80.7466 86.1528C80.2701 86.6294 79.7254 86.8676 79.1127 86.8676C78.4999 86.8676 77.9553 86.6294 77.4787 86.1528C77.0021 85.6762 76.7638 85.1315 76.7638 84.5188C76.7638 83.9061 77.0021 83.3614 77.4787 82.8848C77.9553 82.4082 78.534 82.17 79.2148 82.17ZM72.4746 91.9738V97.4885C72.4746 97.7608 72.5427 97.9651 72.6789 98.1013C72.815 98.2374 73.0193 98.3055 73.2916 98.3055H85.138C85.4103 98.3055 85.6145 98.2374 85.7507 98.1013C85.8869 97.9651 85.9549 97.7608 85.9549 97.4885V91.9738C85.9549 90.8845 85.5805 89.9994 84.8316 89.3186C84.0827 88.6378 83.2316 88.2974 82.2785 88.2974C82.0062 88.1612 81.7679 88.2293 81.5636 88.5016C81.3594 88.774 81.1211 88.9782 80.8488 89.1144C80.1679 89.659 79.4531 89.8633 78.7042 89.7271C77.9553 89.5909 77.3085 89.1824 76.7638 88.5016C76.6276 88.2293 76.4234 88.1612 76.1511 88.2974C75.0617 88.1612 74.1767 88.4676 73.4959 89.2165C72.815 89.9654 72.4746 90.8845 72.4746 91.9738ZM74.1086 91.9738C74.1086 91.4292 74.2448 90.9866 74.5171 90.6462C74.7894 90.3058 75.1979 90.0675 75.7426 89.9314C76.5596 90.7483 77.5468 91.2249 78.7042 91.3611C79.8616 91.4973 80.9168 91.2249 81.87 90.5441L82.687 89.9314C83.0955 90.0675 83.4699 90.3058 83.8103 90.6462C84.1508 90.9866 84.321 91.4292 84.321 91.9738V96.6715H74.1086V91.9738ZM93.5121 88.7059C94.6014 88.7059 95.5546 88.2974 96.3716 87.4804C97.1886 86.6634 97.5971 85.6762 97.5971 84.5188C97.5971 83.3614 97.1886 82.4082 96.3716 81.6593C95.5546 80.9104 94.6014 80.536 93.5121 80.536C92.4228 80.536 91.4696 80.9104 90.6526 81.6593C89.8356 82.4082 89.4272 83.3614 89.4272 84.5188C89.4272 85.6762 89.8356 86.6634 90.6526 87.4804C91.4696 88.2974 92.4228 88.7059 93.5121 88.7059ZM93.5121 82.17C94.1929 82.17 94.7376 82.4082 95.1461 82.8848C95.5546 83.3614 95.7588 83.9061 95.7588 84.5188C95.7588 85.1315 95.5546 85.6762 95.1461 86.1528C94.7376 86.6294 94.1929 86.8676 93.5121 86.8676C92.8313 86.8676 92.2866 86.6294 91.8781 86.1528C91.4696 85.6762 91.2654 85.1315 91.2654 84.5188C91.2654 83.9061 91.4696 83.3614 91.8781 82.8848C92.2866 82.4082 92.8313 82.17 93.5121 82.17ZM96.5758 88.2974C96.3035 88.1612 96.0652 88.2293 95.8609 88.5016C95.6567 88.774 95.4184 88.9782 95.1461 89.1144C94.6014 89.659 93.9206 89.8633 93.1036 89.7271C92.2866 89.5909 91.6058 89.1824 91.0611 88.5016C90.925 88.2293 90.7207 88.1612 90.4484 88.2974C89.3591 88.2974 88.44 88.6378 87.6911 89.3186C86.9421 89.9994 86.5677 90.8845 86.5677 91.9738V97.4885C86.5677 97.7608 86.6698 97.9651 86.8741 98.1013C87.0783 98.2374 87.3166 98.3055 87.5889 98.3055H99.4353C99.7076 98.3055 99.9119 98.2374 100.048 98.1013C100.184 97.9651 100.252 97.7608 100.252 97.4885V91.9738C100.252 90.8845 99.8778 89.9654 99.1289 89.2165C98.38 88.4676 97.529 88.1612 96.5758 88.2974ZM96.9843 89.9314C97.3928 90.0675 97.7332 90.3058 98.0055 90.6462C98.2779 90.9866 98.414 91.4292 98.414 91.9738V96.6715H88.4059V91.9738C88.4059 91.4292 88.5421 90.9866 88.8144 90.6462C89.0867 90.3058 89.4952 90.0675 90.0399 89.9314C90.9931 90.8845 92.1505 91.3611 93.5121 91.3611C94.8738 91.3611 96.0312 90.8845 96.9843 89.9314ZM49.8031 52.3498C51.1648 52.3498 52.3222 51.8392 53.2754 50.818C54.2285 49.7967 54.7051 48.6053 54.7051 47.2436V45.6097C54.7051 44.248 54.2285 43.0906 53.2754 42.1374C52.3222 41.1843 51.1648 40.7077 49.8031 40.7077C48.4415 40.7077 47.2841 41.1843 46.3309 42.1374C45.3778 43.0906 44.9012 44.248 44.9012 45.6097V47.2436C44.9012 48.6053 45.3778 49.7967 46.3309 50.818C47.2841 51.8392 48.4415 52.3498 49.8031 52.3498ZM46.5352 45.6097C46.5352 44.7927 46.8756 44.0778 47.5564 43.4651C48.2372 42.8523 49.0202 42.5459 49.9053 42.5459C50.7903 42.5459 51.5392 42.8523 52.152 43.4651C52.7647 44.0778 53.0711 44.7927 53.0711 45.6097V47.2436C53.0711 48.1968 52.7647 48.9797 52.152 49.5925C51.5392 50.2052 50.7903 50.5116 49.9053 50.5116C49.0202 50.5116 48.2372 50.2052 47.5564 49.5925C46.8756 48.9797 46.5352 48.1968 46.5352 47.2436V45.6097ZM38.978 70.3236C38.978 71.2768 39.2844 72.0257 39.8971 72.5703C40.5099 73.115 41.2247 73.3873 42.0417 73.3873C42.7226 73.3873 43.2672 73.2511 43.6757 72.9788L44.2885 91.7696C44.2885 92.4504 44.4927 93.0632 44.9012 93.6078C45.3097 94.1525 45.8203 94.5269 46.4331 94.7312C47.0458 94.9354 47.6585 94.9695 48.2713 94.8333C48.884 94.6971 49.4627 94.3567 50.0074 93.8121C50.4159 94.3567 50.9605 94.6971 51.6414 94.8333C52.3222 94.9695 52.969 94.9354 53.5817 94.7312C54.1945 94.5269 54.7051 94.1525 55.1136 93.6078C55.5221 93.0632 55.7263 92.4504 55.7263 91.7696L56.3391 73.1831C56.7476 73.4554 57.2241 73.5916 57.7688 73.5916C58.5858 73.5916 59.3007 73.2852 59.9134 72.6724C60.5261 72.0597 60.8325 71.2768 60.8325 70.3236V57.8645C60.9687 56.5029 60.5942 55.2774 59.7091 54.188C58.8241 53.0987 57.7007 52.486 56.3391 52.3498H53.6838C53.4115 52.3498 53.2073 52.4179 53.0711 52.5541L50.0074 55.4135L46.9437 52.5541C46.8075 52.4179 46.6033 52.3498 46.3309 52.3498H44.0842C42.7226 52.3498 41.5311 52.8264 40.5099 53.7796C39.4886 54.7327 38.978 55.9582 38.978 57.456V57.8645V70.3236ZM52.4584 93.1993C52.0499 93.1993 51.6754 93.0632 51.335 92.7908C50.9946 92.5185 50.8244 92.1781 50.8244 91.7696V73.1831C50.8244 73.0469 50.7563 72.8767 50.6201 72.6724C50.484 72.4682 50.2797 72.3661 50.0074 72.3661C49.7351 72.3661 49.5308 72.4682 49.3946 72.6724C49.2585 72.8767 49.1904 73.0469 49.1904 73.1831V91.7696C49.1904 92.1781 49.0202 92.5185 48.6798 92.7908C48.3394 93.0632 47.9649 93.1993 47.5564 93.1993C47.1479 93.1993 46.7735 93.0632 46.4331 92.7908C46.0926 92.5185 45.9224 92.1781 45.9224 91.7696L45.3097 70.1194H54.5008L53.8881 91.7696C53.8881 92.1781 53.7519 92.5185 53.4796 92.7908C53.2073 93.0632 52.8669 93.1993 52.4584 93.1993ZM41.6332 55.005C42.3141 54.3242 43.1311 53.9838 44.0842 53.9838H45.9224L49.3946 57.2518L54.0923 53.9838H55.9306C56.8837 53.9838 57.7007 54.3923 58.3815 55.2093C59.0624 56.0263 59.3347 56.9113 59.1985 57.8645V70.3236C59.1985 70.7321 59.0624 71.0725 58.79 71.3448C58.5177 71.6172 58.1773 71.7533 57.7688 71.7533C57.3603 71.7533 57.0199 71.6172 56.7476 71.3448C56.4752 71.0725 56.3391 70.7321 56.3391 70.3236V61.9495C56.3391 61.6771 56.271 61.4729 56.1348 61.3367C55.9987 61.2005 55.7944 61.1325 55.5221 61.1325C55.2497 61.1325 55.0455 61.2005 54.9093 61.3367C54.7732 61.4729 54.7051 61.6771 54.7051 61.9495V68.4854H45.3097V61.9495C45.3097 61.6771 45.2076 61.4729 45.0033 61.3367C44.7991 61.2005 44.5948 61.1325 44.3906 61.1325C44.1863 61.1325 43.9821 61.2005 43.7778 61.3367C43.5736 61.4729 43.4715 61.6771 43.4715 61.9495V70.3236C43.4715 70.7321 43.3353 71.0725 43.063 71.3448C42.7906 71.6172 42.4502 71.7533 42.0417 71.7533C41.7694 71.7533 41.4971 71.6172 41.2247 71.3448C40.9524 71.0725 40.8163 70.7321 40.8163 70.3236V57.456C40.6801 56.5029 40.9524 55.6859 41.6332 55.005ZM62.6707 48.6734H64.1005V66.6471C64.1005 67.6003 64.4409 68.4173 65.1217 69.0981C65.8025 69.7789 66.6195 70.1194 67.5727 70.1194H78.602L72.6789 75.4298C72.2704 75.7021 72.1342 76.0425 72.2704 76.451C72.4065 76.8595 72.6448 77.0638 72.9852 77.0638C73.3256 77.0638 73.5639 76.9957 73.7001 76.8595L80.4403 70.7321L87.1804 76.8595C87.3166 76.9957 87.5208 77.0638 87.7932 77.0638C88.0655 77.0638 88.2698 76.9616 88.4059 76.7574C88.5421 76.5531 88.6102 76.3149 88.6102 76.0425C88.6102 75.7702 88.5421 75.566 88.4059 75.4298L82.2785 70.1194H93.3079C94.261 70.1194 95.078 69.7789 95.7588 69.0981C96.4397 68.4173 96.7801 67.6003 96.7801 66.6471V48.6734H98.2098C98.4821 48.6734 98.6864 48.5712 98.8225 48.367C98.9587 48.1627 99.0268 47.9925 99.0268 47.8564V41.729C99.0268 41.4566 98.9587 41.2524 98.8225 41.1162C98.6864 40.98 98.4821 40.912 98.2098 40.912H62.6707C62.5346 40.912 62.3644 40.98 62.1601 41.1162C61.9559 41.2524 61.8537 41.4566 61.8537 41.729V47.8564C61.8537 47.9925 61.9559 48.1627 62.1601 48.367C62.3644 48.5712 62.5346 48.6734 62.6707 48.6734ZM94.9418 66.6471C94.9418 67.0556 94.7716 67.4301 94.4312 67.7705C94.0908 68.1109 93.7164 68.2811 93.3079 68.2811H67.5727C67.1642 68.2811 66.7897 68.1109 66.4493 67.7705C66.1089 67.4301 65.9387 67.0556 65.9387 66.6471V48.6734H94.9418V66.6471ZM63.692 42.7502H97.3928V46.8351H63.692V42.7502ZM69.8194 55.6178H85.9549C86.2273 55.6178 86.4656 55.5157 86.6698 55.3114C86.8741 55.1072 86.9762 54.9029 86.9762 54.6987C86.9762 54.4944 86.8741 54.2902 86.6698 54.0859C86.4656 53.8817 86.2273 53.7796 85.9549 53.7796H69.8194C69.6832 53.7796 69.513 53.8817 69.3088 54.0859C69.1045 54.2902 69.0024 54.4944 69.0024 54.6987C69.0024 54.9029 69.1045 55.1072 69.3088 55.3114C69.513 55.5157 69.6832 55.6178 69.8194 55.6178ZM69.8194 59.09H91.0611C91.3335 59.09 91.5718 58.9879 91.776 58.7836C91.9802 58.5794 92.0824 58.3751 92.0824 58.1709C92.0824 57.9666 91.9802 57.7624 91.776 57.5581C91.5718 57.3539 91.3335 57.2518 91.0611 57.2518H69.8194C69.6832 57.2518 69.513 57.3539 69.3088 57.5581C69.1045 57.7624 69.0024 57.9666 69.0024 58.1709C69.0024 58.3751 69.1045 58.5794 69.3088 58.7836C69.513 58.9879 69.6832 59.09 69.8194 59.09ZM69.8194 62.3579H91.0611C91.3335 62.3579 91.5718 62.2899 91.776 62.1537C91.9802 62.0175 92.0824 61.8133 92.0824 61.541C92.0824 61.2686 91.9802 61.0644 91.776 60.9282C91.5718 60.7921 91.3335 60.724 91.0611 60.724H69.8194C69.6832 60.724 69.513 60.7921 69.3088 60.9282C69.1045 61.0644 69.0024 61.2686 69.0024 61.541C69.0024 61.8133 69.1045 62.0175 69.3088 62.1537C69.513 62.2899 69.6832 62.3579 69.8194 62.3579Z" fill="white"/>
</g>
<rect x="1.33163" y="1.21148" width="136.59" height="136.59" rx="68.2952" stroke="#0013FF" stroke-width="1.27655" stroke-dasharray="3.83 2.55"/>
<defs>
<clipPath id="clip0_63_6">
<rect width="61.2998" height="61.2742" fill="white" transform="matrix(1 0 0 -1 38.9658 100.144)"/>
</clipPath>
</defs>
</svg>
