<svg width="139" height="139" viewBox="0 0 139 139" fill="none" xmlns="http://www.w3.org/2000/svg">
<rect x="12.1836" y="12.0625" width="114.889" height="114.889" rx="57.4446" fill="#0013FF"/>
<path d="M96.372 92.3815H95.555C95.6911 89.6582 95.3507 87.2753 94.5337 85.2328V81.3521C94.5337 79.582 94.0572 78.0161 93.104 76.6545L87.5893 68.0761C86.9085 66.9867 86.0575 66.1017 85.0362 65.4208C84.015 64.74 82.8916 64.3315 81.6661 64.1954L73.4963 62.9699V61.7444C74.5856 61.4721 75.4706 60.8934 76.1515 60.0083C76.8323 59.1232 77.1727 58.136 77.1727 57.0467V45.6088C77.1727 44.2472 76.7302 43.0898 75.8451 42.1366C74.96 41.1835 73.8367 40.7069 72.475 40.7069H58.9947C58.7223 40.7069 58.5181 40.809 58.3819 41.0133C58.2458 41.2175 58.1777 41.4558 58.1777 41.7281V45.6088C58.1777 46.6982 58.5181 47.6854 59.1989 48.5704C59.8798 49.4555 60.7648 50.0342 61.8541 50.3065V57.0467C61.9903 58.136 62.3988 59.1232 63.0796 60.0083C63.7605 60.8934 64.6455 61.4721 65.7348 61.7444V62.9699L63.2839 63.3784C63.1477 62.5614 62.7392 61.9827 62.0584 61.6423C61.3776 61.3019 60.6967 61.1997 60.0159 61.3359L58.9947 61.5401C58.3139 61.6763 57.7352 62.0167 57.2586 62.5614C56.782 63.106 56.5437 63.7188 56.5437 64.3996C54.5012 64.9443 52.8673 66.1698 51.6418 68.0761L46.1271 76.6545C45.1739 78.0161 44.6974 79.582 44.6974 81.3521V85.2328C43.8804 87.2753 43.54 89.7263 43.6761 92.5858H42.8591C42.5868 92.5858 42.3485 92.6538 42.1443 92.79C41.94 92.9262 41.8379 93.1304 41.8379 93.4027V97.2835C41.8379 97.5558 41.94 97.7941 42.1443 97.9983C42.3485 98.2026 42.5868 98.3047 42.8591 98.3047H96.372C96.6443 98.3047 96.8826 98.2026 97.0868 97.9983C97.2911 97.7941 97.3932 97.5558 97.3932 97.2835V93.4027C97.3932 93.1304 97.2911 92.8921 97.0868 92.6879C96.8826 92.4836 96.6443 92.3815 96.372 92.3815ZM71.4538 92.3815C74.1771 89.1136 78.262 86.8668 83.7086 85.6413C86.4319 85.0967 89.2233 84.8244 92.0828 84.8244C92.6274 85.6413 93.0359 86.5945 93.3083 87.6838C90.7211 87.82 88.2021 88.1604 85.7511 88.7051C85.3426 88.8412 85.0703 89.0795 84.9341 89.4199C84.7979 89.7603 84.866 90.0667 85.1384 90.339C85.4107 90.6114 85.7511 90.6794 86.1596 90.5433C88.6106 89.9986 91.0615 89.6582 93.5125 89.522C93.6487 90.4752 93.7168 91.4284 93.7168 92.3815H71.4538ZM85.9553 69.0973L91.47 77.6757C92.287 78.765 92.6274 79.9905 92.4913 81.3521V82.9861C90.585 82.85 88.6786 82.918 86.7723 83.1904V80.9437C86.7723 80.8075 86.7723 80.6713 86.7723 80.5352L81.8704 73.795C81.5981 73.5227 81.2917 73.3865 80.9513 73.3865C80.6109 73.3865 80.3726 73.5567 80.2364 73.8971C80.1003 74.2375 80.1003 74.5439 80.2364 74.8162L84.9341 81.3521V83.3946L83.5044 83.8031C77.2408 85.1648 72.6112 87.82 69.6155 91.7688C68.2539 89.7263 66.4157 88.0242 64.1009 86.6626H65.7348C66.5518 86.6626 67.2327 86.3903 67.7773 85.8456C68.322 85.3009 68.5943 84.6201 68.5943 83.8031V80.1267C68.5943 79.4458 68.4241 78.8331 68.0837 78.2884C67.7433 77.7438 67.2327 77.4034 66.5518 77.2672L63.6924 65.2166L65.7348 64.8081C65.871 65.6251 66.2114 66.3059 66.7561 66.8506C67.3007 67.3952 67.9135 67.6676 68.5943 67.6676H70.6368C71.3176 67.6676 71.9304 67.3952 72.475 66.8506C73.0197 66.3059 73.3601 65.6251 73.4963 64.8081L81.4619 66.0336C83.3682 66.4421 84.866 67.4633 85.9553 69.0973ZM64.5094 77.063H61.6499L59.6074 68.8931L62.4669 68.2803L64.5094 77.063ZM61.0372 79.1054H65.7348C66.0072 79.1054 66.2455 79.2075 66.4497 79.4118C66.654 79.616 66.7561 79.8543 66.7561 80.1267V83.8031C66.7561 84.0754 66.654 84.3137 66.4497 84.518C66.2455 84.7222 66.0072 84.8244 65.7348 84.8244H61.0372V79.1054ZM71.4538 61.7444V64.8081C71.4538 65.0804 71.3857 65.2847 71.2495 65.4208C71.1134 65.557 70.9091 65.6251 70.6368 65.6251H68.5943C68.322 65.6251 68.1177 65.557 67.9816 65.4208C67.8454 65.2847 67.7773 65.0804 67.7773 64.8081V61.7444H71.4538ZM60.0159 45.6088V42.7494H72.475C73.292 42.7494 73.9728 43.0217 74.5175 43.5664C75.0621 44.111 75.3345 44.7918 75.3345 45.6088V48.4683H62.8754C62.0584 48.4683 61.3776 48.196 60.8329 47.6513C60.2882 47.1067 60.0159 46.4258 60.0159 45.6088ZM63.8966 57.0467V50.3065H75.3345V57.0467C75.3345 57.8637 75.0621 58.5445 74.5175 59.0892C73.9728 59.6338 73.292 59.9062 72.475 59.9062H66.7561C65.9391 59.9062 65.2583 59.6338 64.7136 59.0892C64.1689 58.5445 63.8966 57.8637 63.8966 57.0467ZM58.7904 63.7869C58.9266 63.5145 59.1308 63.3784 59.4032 63.3784L60.4244 63.1741C60.5606 63.038 60.7648 63.072 61.0372 63.2762C61.3095 63.4805 61.4456 63.6507 61.4456 63.7869L62.0584 66.4421L59.1989 67.0548L58.5862 64.6039C58.45 64.3315 58.5181 64.0592 58.7904 63.7869ZM47.7611 77.6757L53.2757 69.0973C54.2289 67.7356 55.4544 66.7825 56.9522 66.2378L59.8117 77.063H56.1352L56.9522 75.8375C57.2245 75.429 57.2586 75.0886 57.0543 74.8162C56.8501 74.5439 56.5778 74.3737 56.2373 74.3056C55.8969 74.2375 55.5906 74.4077 55.3182 74.8162L53.48 77.6757C53.3438 77.948 53.3438 78.2544 53.48 78.5948C53.6162 78.9352 53.8885 79.1054 54.297 79.1054H58.9947V84.6201C58.1777 84.2116 57.2245 83.9393 56.1352 83.8031C53.0034 83.1223 49.8716 82.85 46.7398 82.9861V81.3521C46.6037 79.9905 46.9441 78.765 47.7611 77.6757ZM45.7186 89.522C48.1696 89.6582 50.6205 89.9986 53.0715 90.5433C53.48 90.6794 53.8204 90.6114 54.0927 90.339C54.3651 90.0667 54.4332 89.7603 54.297 89.4199C54.1608 89.0795 53.8885 88.8412 53.48 88.7051C51.029 88.1604 48.51 87.82 45.9228 87.6838C46.1952 86.5945 46.6037 85.6413 47.1483 84.8244C50.0078 84.8244 52.8673 85.0967 55.7267 85.6413C61.3095 86.8668 65.3264 89.1136 67.7773 92.3815H45.5143C45.5143 91.4284 45.5824 90.4752 45.7186 89.522ZM95.555 96.2622H43.6761V94.424H95.555V96.2622Z" fill="white"/>
<rect x="1.33163" y="1.21249" width="136.59" height="136.59" rx="68.2952" stroke="#0013FF" stroke-width="1.27655" stroke-dasharray="3.83 2.55"/>
</svg>
